<svg version="1" xmlns="http://www.w3.org/2000/svg" width="2533.333" height="2533.333" viewBox="0 0 1900.000000 1900.000000"><path d="M1038.3 395.4c-9.4 3.1-19.5 8.1-30.4 15.3-9.6 6.3-9.8 6.7-11.3 19.7-1.7 14.1 5.5 30.5 13.8 31.9 5.2.8 16.3-1 22.2-3.7 9.5-4.4 19.9-16 17.6-19.7-.9-1.5-.6-1.8 2.4-2.4 2.1-.4 5.4-2.3 8-4.7 2.7-2.5 4.9-3.8 5.9-3.4 4.2 1.6 13.9 9.3 19.9 15.7 7.9 8.5 13.8 19.8 21.1 40.6 2.6 7.2 5.5 13.9 6.6 14.9 1 .9 1.9 2 1.9 2.4 0 .4-2.8 1.8-6.2 3-8.1 2.9-18.8 8.3-25.8 12.9-12.3 8.1-24.3 22-28.1 32.4-.9 2.7-2.1 3.9-3.9 4.3-29.9 6.7-51.6 19.9-59.2 36l-3 6.4h-7.4c-17.7 0-27.6-8.1-27.8-23 0-3.6.3-7.7.7-9.2 1.1-4.1 9.7-7.8 21-9.2 5.1-.6 9.8-1.5 10.5-1.9 1.5-1 1.6-8.7 0-13.9-1-3.3-.9-4.4.5-6.8 2.4-4.1 2.1-6-1.5-9l-3.2-2.7 1.9-4.2c1.6-3.7 1.7-4.8.7-8.8l-1.3-4.5 4-4.3c6.2-6.7 5.1-8.3-10.7-16.5-9.8-5.1-11-6.6-8.8-12.1 2.2-5.4 2-7.3-1.3-15-5.8-13.6-16.4-26.7-25.8-31.6-9.6-5.2-17.1-6.7-32.3-6.7-15.9 0-24.6 2-37.5 8.7-13 6.8-26.6 21.9-31.1 34.4-1.8 5.1-1.8 23 .1 33.5 3.1 17.9 6.8 25.8 25.6 54.3l9.9 15V574c0 17.2-4.3 29.4-13.5 38.6-8.1 8.2-13.6 10.4-29.1 12-21.1 2.2-38 8.2-51.4 18.3-5.4 4.1-5.5 4.1-14 4.1-19 0-36.2 6.1-45.2 15.9l-5.1 5.6.6-11c1-19.2 7.3-38.2 17.1-51.8 7.5-10.6 7.8-10.8 16.9-9.5 5.4.8 9.2.8 12.2.1l4.5-1 2.5 4.3c3.9 6.7 6 7.7 14.5 6.8 5.9-.6 7.4-1.1 9.1-3.2 1.1-1.4 3.7-3.3 5.9-4.3 4.7-2.1 5.4-3.6 7-14.6 1.5-9.7.8-14.2-2.4-17.2-1.3-1.2-2.6-3.9-3-5.9-.7-4.8-3.1-8.1-7-9.7-2.4-1-6.5-1.1-19.1-.4-8.8.6-17.4.7-19.2.4-4.9-.9-16.1 1.3-22.9 4.6-4.3 2-7.9 4.8-11.8 9.1-7 7.8-50.8 68-57.7 79.4-11.1 18.5-17.5 34.8-21.5 55.2-2.3 11.8-2.3 12.9-.9 17.8 2.7 9.3 11.4 15.1 26.1 17.4 17.9 2.8 48.5 5.3 65.9 5.4 16.6 0 20.2-.2 28-2.2 10.2-2.6 27.7-10.7 37.9-17.6 3.8-2.5 7-4.5 7.1-4.4.1.2.7 2.3 1.4 4.8 3.6 12.5 12.7 25.8 25.5 37.5 5.6 5.1 9.6 9.8 11.3 13 9.5 18.7 32.2 56.3 40.3 67l3.8 5-.9 10c-2.9 31.8-11.8 63.7-26.5 95.8-9.8 21.3-11.7 28.4-11.7 44.2 0 11.2.4 14.2 2.7 21.9 3.4 11.3 7.9 21.1 14.4 31.2 4.7 7.4 5.3 9 8.7 24.4 9.3 42.9 20.9 82.9 28.6 98.8l4 8.3-1 8.8c-.6 4.7-1.3 13.5-1.6 19.4l-.5 10.8-5.7 2.9c-7.7 3.9-20.7 15.4-29.9 26.5-9 10.9-25.8 35.8-34.7 51.5-8.5 15.1-24.1 46.6-30.2 60.9-3.8 8.9-6.1 12.7-10.3 17.3-6.2 6.6-16.3 13.2-27.3 17.7-9.5 3.9-15.2 8.7-17.5 14.6-2.2 5.9-1.9 7.3 7.2 29.9 4.6 11.4 8 21.6 8.6 25.5 3.3 21.6 8.5 33.8 18.9 44.2 7.9 8 20.8 15.1 23.4 12.9.8-.7 1.5-1.8 1.5-2.5 0-.9 1.3-.9 5.5-.2 4.6.9 6.2.8 9.1-.6 1.9-.9 5-1.7 7-1.7 4 0 8.7-2.1 10.6-4.9.7-1 2.8-2.2 4.6-2.6 4.6-1 6.8-4.6 5.2-8.4-1-2.6-1.8-3-8.8-4.1-10.3-1.6-18.9-4.4-21.6-6.9-2.1-2-2.1-2.3-.9-11.3.7-5.1 1.6-19.7 1.9-32.3l.5-23 5.6-9.5c7.8-13.1 17.7-27.7 26.4-39 8.9-11.5 28-31.4 36.9-38.3 3.6-2.8 16.2-14.6 28-26.2 22.5-22 40.6-38.1 50.1-44.5 13.1-9 25.9-27.4 32.6-46.7l2.7-7.8.5-48.7c.4-26.8.9-49 1.3-49.3.9-1 11.7 9.4 18.8 18 9.7 11.9 17.4 24.6 28.9 47.8 6.1 12.2 13.2 25.5 15.8 29.6l4.8 7.5-5.2 13c-11.1 28.2-16.3 51.8-16.3 74.5 0 15-2.7 38.3-8.5 74-5.6 34.1-9.6 50.1-15.6 62.2-4.5 9.1-8 20.7-8.6 28.4-.4 6-.1 7.6 1.9 11.4 1.3 2.5 3.4 5.3 4.9 6.3 5.3 4 23.5 4.2 40.9.7 10.8-2.2 28 1.2 40.7 8.2 11 6 17.8 7.2 36.8 6.6 16-.5 24-1.9 29.3-5.3 5.2-3.4.5-9.4-8-10.2-3.4-.3-6.4-1.3-8.4-2.8-5.3-4.1-16.1-8.4-22.6-9.1-6.1-.6-6.6-.9-16.3-9.1-11.5-9.7-20.2-16.1-26.2-19.2-5.4-2.8-5.8-4.6-5.8-25.5 0-20.5.9-24.3 14-60 19.6-53.4 31-89.9 32.2-102.5.4-4.1 1.4-7.8 2.8-10.1 7.2-11.3 13.4-27.6 15.6-40.3 2.4-14 1.8-16-18.4-67.3-10.1-25.7-19.9-51.9-21.6-58.1-8.7-30.8-28-67.2-50-94.5-5.4-6.6-9.6-13.7-16.6-27.5-5.2-10.3-10.9-21.2-12.6-24.3l-3.2-5.6 4.1-10.4c16.4-42.3 24.7-92.9 22.1-135.4-.5-8.8-1.3-18.4-1.8-21.4-.8-5.1-.6-5.8 4.2-16.5 6.2-13.9 13.8-36.8 16.7-50.6 4.6-21.4 3.7-48.4-2-63l-1.9-4.8 6.2-2.2c8.5-3.1 24.6-11.2 33.1-16.7 26.3-17 45.5-38.1 59.3-65.1 3-6 7.4-12.7 10.3-15.9 13-14.2 17.4-25.6 13.6-34.8-2.5-5.9-12.9-18.7-23-28.2-12.8-12.1-27.4-21.9-48.1-32.3-20.7-10.4-40.9-22.9-49.5-30.6-3.5-3.1-7.8-6.3-9.6-7-5.2-2.2-17.7-1.7-26.1 1z"/></svg>