<svg height="512pt" viewBox="0 0 512 512" width="512pt" xmlns="http://www.w3.org/2000/svg"><path d="m211 241h90v30h-90zm0 0"/><path d="m331 241h90v30h-90zm0 0"/><path d="m316 121c-7.8125 0-15.628906.476562-23.367188 1.402344l-24.320312-122.402344h-138.527344l-30 30c-10.640625 0-84.515625 0-99.785156 0v151h99.785156l21.214844 21.214844v68.773437h5.246094c-3.480469 14.675781-5.246094 29.75-5.246094 45.011719 0 107.59375 87.324219 196 195 196 107.636719 0 196-88.351562 196-196 0-107.5625-88.285156-195-196-195zm-286 30v-91h30v91c-10.492188 0-19.507812 0-30 0zm82.214844 0h-22.214844v-91h22.214844l30-30h101.472656l24.039062 121h-86.726562v45c0 19.554688-12.539062 36.238281-30 42.429688v-48.644532zm203.785156 331c-90.980469 0-165-74.46875-165-166 0-16.519531 2.433594-32.75 7.234375-48.363281 30.535156-9.5 52.765625-38.019531 52.765625-71.636719v-15h93.273438l-5.777344-29.066406c5.804687-.613282 11.652344-.933594 17.503906-.933594 91.53125 0 166 74.019531 166 165 0 91.53125-74.46875 166-166 166zm0 0"/><path d="m316 301c-57.898438 0-105 47.101562-105 105v15h210v-15c0-57.898438-47.101562-105-105-105zm-73.492188 90c6.96875-34.191406 37.273438-60 73.492188-60s66.523438 25.808594 73.492188 60zm0 0"/></svg>