<svg height="203" viewBox="0 0 100 203" width="100" xmlns="http://www.w3.org/2000/svg"><path d="m42.0162393 31.0640331c.1974359.5796405 1.5717949 9.0645371-5.8837607 11.1868099 0 0-6.7735042-.3808347-11.6811965 4.0449008 0 0-8.340171-.6769463-10.6068377 4.1472397 0 0-.5803418-8.3917852 4.8196582-13.494467 0 0 3.1333333.769219 4.4051282 0 0 0 .9863248 3.1364339 3.151282 1.9226281 0 0 1.5196581.4345207 1.7692308-.9680248 0 0 2.2589743-.1400867 1.8111111-2.3110124 0 0 1.134188-3.0802314-.6871795-3.9484338 0 0 .1017094-2.7094629-2.3504273-2.6046075 0 0-4.4598291.3246322-5.9384616.1937727-1.9179487-.1509917-5.308547.4848513-7.3692307 4.0423843l-7.16923081 9.8379505s-5.00940171 6.5530413-5.69145299 13.0045826c0 0-2.07350428 4.8216694 4.32222222 5.8735785 0 0 8.89999998 1.0653306 11.87863248 1.0602975 2.7555556 0 6.825641.1098885 13.1153846-4.5129752 0 0 .9264957 5.1999876 6.2299145 8.8497934 0 0 5.8888889 11.1834546 8.4470086 13.8753017 0 0 .0393162 9.2113347-5.2794872 19.9636239-1.8136752 3.657355-3.6094017 9.715479 2.2897436 17.811153 0 0 3.6794872 18.209603 6.4871795 21.973492 0 0-.7418804 5.777111-.4427351 7.227471 0 0-6.9299145.735665-17.676923 24.292892-.9290599 2.038389-1.0307693 4.341852-6.331624 6.946459 0 0-5.4461538 1.430227-3.8324786 5.194116 0 0 2.2068376 5.337558 2.7923077 7.084867 0 0-.0726496 7.952232 6.4931624 10.552645 0 0 1.3213675.868203 1.2410256-.57293 0 0 2.2119658.791868 3.0213675-.13757 0 0 2.4247864.286884 2.9427351-1.230583 0 0 2.7273504-.214743 1.251282-2.165892 0 0-4.78547-.429488-5.5273504-1.808546 0 0 1.1846154-8.386752.5230769-11.206103 0 0 5.6598291-11.211136 14.0752137-17.13169 0 0 9.1239316-9.530934 13.2504274-11.99881 0 0 6.1880342-5.633669 5.4384615-12.72357l.1461538-14.168897s5.0017095 3.611219 8.5452992 11.860401c0 0 2.8 5.782145 3.8410256 6.793789 0 0-4.8658119 10.409203-3.8410256 17.636674 0 0-2.0606838 18.363111-4.1162393 21.835921 0 0-3.3102564 6.282095-1.0307693 8.315451 0 0 .4478633 2.023289 8.4726496.429487 0 0 3.6854701-.291917 7.0683761 1.873976 0 0 2.4358974 1.66007 8.551282.791867 0 0 5.0786325-.644231 2.2794872-2.451938 0 0-1.1034188-.367413-1.7641025-.143442 0 0-2.4256411-2.313529-5.8863248-2.24726 0 0-5.8863248-5.282194-7.1452992-5.199988 0 0-1.468376-4.341851.5880342-10.920897 0 0 7.734188-20.022342 7.4376068-23.644466 0 0 4.282906-6.144525 3.0905983-11.640624l-6.6196581-16.774343s-1.7641025-9.970488-10.7632478-20.375496c0 0-4.0538462-8.5629094-4.4965812-8.4144341 0 0 6.9324786-14.9028843 4.2786324-31.0866819 0 0 7.5094017-14.0262934 3.1641026-23.0849586 0 0 12.974359-3.4677769 18.5589744-16.9169463 0 0 5.8863248-5.0565455 2.6538461-8.2307273 0 0-3.534188-6.2133099-13.5521367-10.41004132 0 0-6.6307693-3.75969422-7.6666667-5.05654546 0 0-2.7948718-4.34185123-12.9692308 3.03409505 0 0-1.7641025 5.63954133 1.623077 8.09147933 0 0 5.1521367.8682025 7.5153846-3.60870247 0 0 .4376068-.57544629-.4376069-.86316943 0 0 1.9051282.14008678 2.9358975-1.73640495 0 0 4.4239316 1.73640495 6.4957265 6.94142565 2.0606837 5.2016653 1.7589743 5.6311529 2.9452991 6.4993553 0 0-9.134188 2.4594876-11.2 9.25831 0 0-9.8786325 1.5963181-11.4863248 7.6645082 0 0-7.8119658 1.159281-6.1846154-6.0681901 0 0 1.3273505-1.5963181 4.9102564-1.4075785 0 0 1.7905983.1098885.4940171-3.2740041-.1145299-.3187603.3119659-.6895289.5470086-1.2540703.2188034-.5242768.0051282-.6232603-.9837607-1.4352603-.3282051-.2709463.2606838-.8531033.5102564-1.4889463.1461539-.3833512-.5102564-1.7900909-.5102564-1.7900909s1.5299145-1.1827686 1.4623932-1.7364049c-.1504274-1.3127893-3.7256411-1.9972852-4.3290599-3.1750207-.2299145-.4697521.6034188-1.5166281.5042735-2.0224504-.4034188-1.8848802-2.391453-5.7385248-5.0401709-7.22495456-3.6299145-2.0476157-13.5470085-2.70191322-17.8692308 5.87945046-1.1658119 2.3084958-.2290598 7.9245495.7786325 10.315252.9444445 2.2623595 5.2068376 8.360748 5.2068376 8.360748z"/></svg>