<svg height="520" viewBox="0 0 434 520" width="434" xmlns="http://www.w3.org/2000/svg"><g stroke="#000" stroke-linecap="round" stroke-linejoin="round" stroke-width="8" transform="translate(4 4)"><path d="m360.049 328.665-38.781-11.08c3.611-1.85 7-4.277 10.019-7.297 7.555-7.555 11.716-17.6 11.716-28.284 0-9.008-2.969-17.556-8.425-24.546 1.831-7.151 3.032-14.444 3.569-21.813 24.792-4.562 43.637-26.335 43.637-52.426v-28.872c0-83.664-70.682-154.347-154.348-154.347-33.485 0-61.475 5.414-85.569 16.551-5.013 2.317-7.198 8.26-4.881 13.273s8.261 7.199 13.273 4.881c21.406-9.895 46.651-14.705 77.177-14.705 72.824 0 134.349 61.523 134.349 134.348v28.872c0 14.882-9.811 27.515-23.305 31.771v-44.982c0-5.114-3.858-9.404-8.944-9.944-40.785-4.331-45.919-46.824-46.113-48.595-.396-3.859-2.992-7.136-6.654-8.416-3.662-1.279-7.738-.321-10.451 2.452-.236.242-24.068 24.347-61.685 40.884-35.066 15.416-69.896 19.456-104.02 12.128-.599-.194-1.223-.334-1.866-.412-10.953-2.487-21.829-6.146-32.617-10.979 7.298-24.776 16.747-46.009 28.14-63.207 3.05-4.604 1.79-10.81-2.814-13.859-4.604-3.05-10.811-1.79-13.859 2.814-13.796 20.828-24.911 46.762-33.035 77.083-1.229 4.588.938 9.408 5.187 11.533 12.382 6.19 25.002 10.974 37.777 14.346v50.688c0 33.334 13.069 63.671 34.348 86.164l-55.918 15.977c-38.862 11.104-64.973 43.963-64.973 81.766v91.571c0 5.523 4.478 10 10 10s10-4.477 10-10v-91.571c0-28.779 20.281-53.911 50.467-62.535l56.051-16.015 21.274 79c.974 3.615 3.885 6.383 7.543 7.174.704.152 1.411.226 2.113.226 2.952 0 5.798-1.31 7.72-3.644l16.849-20.468v107.832c0 5.523 4.478 10 10 10s10-4.477 10-10v-132.122l10.001-12.146 10.001 12.146v132.122c0 5.523 4.478 10 10 10s10-4.477 10-10v-107.832l16.853 20.467c2.379 2.89 6.172 4.209 9.833 3.418 3.658-.791 6.569-3.56 7.543-7.174l21.274-79 56.05 16.015c30.186 8.625 50.467 33.756 50.467 62.535v91.571c0 5.523 4.478 10 10 10s10-4.477 10-10v-91.571c-.001-37.803-26.111-70.662-64.973-81.766zm-42.904-32.519c-7.796 7.798-20.486 7.8-28.284 0-3.777-3.777-5.858-8.799-5.858-14.142 0-5.342 2.081-10.364 5.858-14.142l14.143-14.143 13.326 13.327c.017.017.035.034.052.052l.764.764c3.777 3.777 5.858 8.8 5.858 14.142-.001 5.342-2.082 10.364-5.859 14.142zm-209.622-116.2c8.737 1.291 17.528 1.938 26.346 1.938 26.478-.001 53.21-5.828 79.502-17.491 24.187-10.729 42.899-24.079 54.386-33.435 1.436 4.084 3.335 8.578 5.84 13.132 10.026 18.233 25.43 29.992 44.883 34.391v48.043c0 4.528-.309 9.034-.888 13.5l-7.517-7.517c-1.875-1.875-4.419-2.929-7.071-2.929s-5.195 1.054-7.071 2.929l-21.214 21.213c-7.555 7.555-11.716 17.6-11.716 28.284 0 10.685 4.161 20.729 11.716 28.284.316.316.642.615.966.918-18.109 13.485-39.941 20.796-62.683 20.796-28.633 0-54.633-11.474-73.658-30.059-.496-.638-1.07-1.199-1.696-1.694-18.623-19.031-30.124-45.058-30.124-73.725v-46.578zm55.516 207.002-14.168-52.613c13.353 7.973 28.301 13.536 44.244 16.086l-7.826 9.505c-.004.005-.008.009-.011.014zm99.924 0-22.239-27.009c-.004-.005-.008-.009-.011-.014l-7.832-9.512c15.674-2.516 30.665-7.993 44.27-16.149z"/><path d="m138.001 222.754c7.589 4.382 16.234 6.699 25 6.699 8.765 0 17.409-2.316 25-6.699 4.783-2.761 6.422-8.877 3.66-13.66-2.759-4.782-8.875-6.422-13.66-3.66-4.555 2.629-9.741 4.019-15 4.019-5.26 0-10.446-1.39-15-4.019-4.784-2.763-10.898-1.122-13.66 3.66s-1.123 10.898 3.66 13.66zm100.001 0c7.589 4.382 16.234 6.699 24.999 6.699 8.766 0 17.411-2.316 25-6.699 4.783-2.762 6.422-8.878 3.66-13.661s-8.88-6.422-13.66-3.66c-4.554 2.629-9.74 4.019-15 4.019-5.259 0-10.445-1.39-14.999-4.019-4.785-2.763-10.898-1.122-13.66 3.66-2.762 4.783-1.123 10.899 3.66 13.661zm-53.661 64.25c2.762 4.782 8.878 6.42 13.66 3.66 4.555-2.629 9.741-4.02 15-4.02s10.445 1.39 15 4.02c1.575.91 3.294 1.342 4.99 1.342 3.456 0 6.817-1.794 8.67-5.001 2.762-4.783 1.123-10.899-3.66-13.661-7.59-4.383-16.235-6.699-25-6.699s-17.41 2.316-25 6.699c-4.783 2.761-6.422 8.878-3.66 13.66zm-72.073-229.283c2.258 0 4.53-.761 6.399-2.319 4.243-3.536 4.816-9.841 1.281-14.084-3.538-4.243-9.843-4.814-14.084-1.28l-.006.005c-4.243 3.536-4.813 9.839-1.278 14.082 1.978 2.372 4.822 3.596 7.688 3.596zm262.752 394.279h-39.995c-5.522 0-10 4.477-10 10s4.478 10 10 10h39.995c5.522 0 10-4.477 10-10s-4.478-10-10-10zm-79.993 0h-.007c-5.522 0-9.997 4.477-9.997 10s4.481 10 10.004 10 10-4.477 10-10-4.477-10-10-10z"/></g></svg>