<?xml version="1.0" encoding="iso-8859-1"?>
<!-- Generator: Adobe Illustrator 21.0.0, SVG Export Plug-In . SVG Version: 6.00 Build 0)  -->
<svg xmlns="http://www.w3.org/2000/svg" xmlns:xlink="http://www.w3.org/1999/xlink" version="1.1" id="Capa_1" x="0px" y="0px" viewBox="0 0 512.002 512.002" style="enable-background:new 0 0 512.002 512.002;" xml:space="preserve" width="512" height="512">
<g>
	<g>
		<path d="M403.049,328.665l-38.781-11.08c3.611-1.85,7-4.277,10.019-7.297c7.555-7.555,11.716-17.6,11.716-28.284    c0-9.008-2.969-17.556-8.425-24.546c1.831-7.151,3.032-14.444,3.569-21.813c24.792-4.562,43.637-26.335,43.637-52.426v-28.872    C424.784,70.683,354.102,0,270.436,0c-33.485,0-61.475,5.414-85.569,16.551c-5.013,2.317-7.198,8.26-4.881,13.273    s8.261,7.199,13.273,4.881C214.665,24.81,239.91,20,270.436,20c72.824,0,134.349,61.523,134.349,134.348v28.872    c0,14.882-9.811,27.515-23.305,31.771v-44.982c0-5.114-3.858-9.404-8.944-9.944c-40.785-4.331-45.919-46.824-46.113-48.595    c-0.396-3.859-2.992-7.136-6.654-8.416c-3.662-1.279-7.738-0.321-10.451,2.452c-0.236,0.242-24.068,24.347-61.685,40.884    c-35.066,15.416-69.896,19.456-104.02,12.128c-0.599-0.194-1.223-0.334-1.866-0.412c-10.953-2.487-21.829-6.146-32.617-10.979    c7.298-24.776,16.747-46.009,28.14-63.207c3.05-4.604,1.79-10.81-2.814-13.859c-4.604-3.05-10.811-1.79-13.859,2.814    c-13.796,20.828-24.911,46.762-33.035,77.083c-1.229,4.588,0.938,9.408,5.187,11.533c12.382,6.19,25.002,10.974,37.777,14.346    v50.688c0,33.334,13.069,63.671,34.348,86.164l-55.918,15.977c-38.862,11.104-64.973,43.963-64.973,81.766v91.571    c0,5.523,4.478,10,10,10s10-4.477,10-10v-91.571c0-28.779,20.281-53.911,50.467-62.535l56.051-16.015l21.274,79    c0.974,3.615,3.885,6.383,7.543,7.174c0.704,0.152,1.411,0.226,2.113,0.226c2.952,0,5.798-1.31,7.72-3.644L226,394.17v107.832    c0,5.523,4.478,10,10,10s10-4.477,10-10V369.88l10.001-12.146l10.001,12.146v132.122c0,5.523,4.478,10,10,10s10-4.477,10-10    V394.17l16.853,20.467c2.379,2.89,6.172,4.209,9.833,3.418c3.658-0.791,6.569-3.56,7.543-7.174l21.274-79l56.05,16.015    c30.186,8.625,50.467,33.756,50.467,62.535v91.571c0,5.523,4.478,10,10,10s10-4.477,10-10v-91.571    C468.021,372.628,441.911,339.769,403.049,328.665z M360.145,296.146c-7.796,7.798-20.486,7.8-28.284,0    c-3.777-3.777-5.858-8.799-5.858-14.142c0-5.342,2.081-10.364,5.858-14.142l14.143-14.143l13.326,13.327    c0.017,0.017,0.035,0.034,0.052,0.052l0.764,0.764c3.777,3.777,5.858,8.8,5.858,14.142    C366.003,287.346,363.922,292.368,360.145,296.146z M150.523,179.946c8.737,1.291,17.528,1.938,26.346,1.938    c26.478-0.001,53.21-5.828,79.502-17.491c24.187-10.729,42.899-24.079,54.386-33.435c1.436,4.084,3.335,8.578,5.84,13.132    c10.026,18.233,25.43,29.992,44.883,34.391v48.043c0,4.528-0.309,9.034-0.888,13.5l-7.517-7.517    c-1.875-1.875-4.419-2.929-7.071-2.929s-5.195,1.054-7.071,2.929l-21.214,21.213c-7.555,7.555-11.716,17.6-11.716,28.284    c0,10.685,4.161,20.729,11.716,28.284c0.316,0.316,0.642,0.615,0.966,0.918c-18.109,13.485-39.941,20.796-62.683,20.796    c-28.633,0-54.633-11.474-73.658-30.059c-0.496-0.638-1.07-1.199-1.696-1.694c-18.623-19.031-30.124-45.058-30.124-73.725V179.946    z M206.039,386.948l-14.168-52.613c13.353,7.973,28.301,13.536,44.244,16.086l-7.826,9.505c-0.004,0.005-0.008,0.009-0.011,0.014    L206.039,386.948z M305.963,386.948l-22.239-27.009c-0.004-0.005-0.008-0.009-0.011-0.014l-7.832-9.512    c15.674-2.516,30.665-7.993,44.27-16.149L305.963,386.948z"/>
		<path d="M181.001,222.754c7.589,4.382,16.234,6.699,25,6.699c8.765,0,17.409-2.316,25-6.699c4.783-2.761,6.422-8.877,3.66-13.66    c-2.759-4.782-8.875-6.422-13.66-3.66c-4.555,2.629-9.741,4.019-15,4.019c-5.26,0-10.446-1.39-15-4.019    c-4.784-2.763-10.898-1.122-13.66,3.66C174.579,213.876,176.218,219.992,181.001,222.754z"/>
		<path d="M281.002,222.754c7.589,4.382,16.234,6.699,24.999,6.699c8.766,0,17.411-2.316,25-6.699    c4.783-2.762,6.422-8.878,3.66-13.661s-8.88-6.422-13.66-3.66c-4.554,2.629-9.74,4.019-15,4.019    c-5.259,0-10.445-1.39-14.999-4.019c-4.785-2.763-10.898-1.122-13.66,3.66C274.58,213.876,276.219,219.992,281.002,222.754z"/>
		<path d="M227.341,287.004c2.762,4.782,8.878,6.42,13.66,3.66c4.555-2.629,9.741-4.02,15-4.02s10.445,1.39,15,4.02    c1.575,0.91,3.294,1.342,4.99,1.342c3.456,0,6.817-1.794,8.67-5.001c2.762-4.783,1.123-10.899-3.66-13.661    c-7.59-4.383-16.235-6.699-25-6.699s-17.41,2.316-25,6.699C226.218,276.105,224.579,282.222,227.341,287.004z"/>
		<path d="M155.268,57.721c2.258,0,4.53-0.761,6.399-2.319c4.243-3.536,4.816-9.841,1.281-14.084    c-3.538-4.243-9.843-4.814-14.084-1.28l-0.006,0.005c-4.243,3.536-4.813,9.839-1.278,14.082    C149.558,56.497,152.402,57.721,155.268,57.721z"/>
		<path d="M418.02,452h-39.995c-5.522,0-10,4.477-10,10s4.478,10,10,10h39.995c5.522,0,10-4.477,10-10S423.542,452,418.02,452z"/>
		<path d="M338.027,452h-0.007c-5.522,0-9.997,4.477-9.997,10s4.481,10,10.004,10s10-4.477,10-10S343.55,452,338.027,452z"/>
	</g>
</g>















</svg>
