<svg height="60" viewBox="0 0 34 60" width="34" xmlns="http://www.w3.org/2000/svg"><g stroke="#000" transform="translate(1 1)"><path d="m31 28c-.552 0-1 .447-1 1v6c0 7.72-6.28 14-14 14s-14-6.28-14-14v-6c0-.553-.448-1-1-1s-1 .447-1 1v6c0 8.485 6.644 15.429 15 15.949v5.051h-5c-.552 0-1 .447-1 1s.448 1 1 1h12c.552 0 1-.447 1-1s-.448-1-1-1h-5v-5.051c8.356-.52 15-7.465 15-15.949v-6c0-.553-.448-1-1-1z"/><path d="m16 46c6.065 0 11-4.935 11-11v-24c0-6.065-4.935-11-11-11s-11 4.935-11 11v24c0 6.065 4.935 11 11 11zm-9-35c0-4.963 4.038-9 9-9s9 4.037 9 9v24c0 4.963-4.038 9-9 9s-9-4.037-9-9z"/></g></svg>