<svg height="169" viewBox="0 0 292 169" width="292" xmlns="http://www.w3.org/2000/svg"><g transform="translate(-92 -153)"><path d="m34.8734786 25.8611901c.1638718.4825578 1.3045898 7.5463388-4.8835213 9.313157 0 0-5.6220086-.3170496-9.6953932 3.3674298 0 0-6.9223419-.5635662-8.8036752 3.4526281 0 0-.4816838-6.9862645 4.0003162-11.23431 0 0 2.6006667.6403843 3.6562564 0 0 0 .8186496 2.6111199 2.6155641 1.6006116 0 0 1.2613163.3617438 1.4684616-.8058926 0 0 1.8749487-.1166239 1.5032222-1.9239462 0 0 .9413761-2.5643306-.570359-3.2871199 0 0 .0844188-2.2556611-1.9508547-2.1683677 0 0-3.7016581.2702603-4.9289231.1613181-1.5918974-.1257024-4.406094.4036447-6.1164615 3.3653348l-5.95046153 8.1902148s-4.15780342 5.4554876-4.72390598 10.8264752c0 0-1.72100855 4.0140992 3.58744444 4.8898265 0 0 7.38699997.8869008 9.85926497.8827107 2.2871111 0 5.665282.0914835 10.8857692-3.7571074 0 0 .7689915 4.3290537 5.1708291 7.367562 0 0 4.8877778 9.3103636 7.0110171 11.5513595 0 0 .0326325 7.6685496-4.3819744 16.6199628-1.5053504 3.0447934-2.9958034 8.0882562 1.9004872 14.8280041 0 0 3.0539744 15.1597187 5.384359 18.2932027 0 0-.6157607 4.809516-.3674701 6.016958 0 0-5.7518291.612451-14.6718462 20.224133-.7711196 1.696983-.8555384 3.614644-5.2552478 5.783012 0 0-4.5203077 1.190682-3.1809573 4.324165 0 0 1.8316752 4.443583 2.3176154 5.89824 0 0-.0602992 6.620331 5.3893248 8.785207 0 0 1.096735.722789 1.0300513-.476971 0 0 1.8359316.659239 2.507735-.114529 0 0 2.0125726.238834 2.4424701-1.024476 0 0 2.2637008-.178776 1.0385641-1.803132 0 0-3.9719402-.357553-4.5877009-1.505636 0 0 .9832308-6.982075.4341539-9.329219 0 0 4.6976581-9.333409 11.6824273-14.262343 0 0 7.5728633-7.93462 10.9978547-9.989157 0 0 5.1360684-4.690099 4.5139231-10.592529l.1213077-11.795781s4.1514188 3.006384 7.0925983 9.87393c0 0 2.324 4.813706 3.1880513 5.655913 0 0-4.038624 8.665789-3.1880513 14.682748 0 0-1.7103675 15.287516-3.4164786 18.178673 0 0-2.7475129 5.229922-.8555385 6.922715 0 0 .3717265 1.684414 7.0322991.357554 0 0 3.0589402-.243025 5.8667522 1.560107 0 0 2.0217948 1.382029 7.0975641.65924 0 0 4.2152649-.53633 1.8919743-2.041268 0 0-.9158376-.305877-1.4642051-.119418 0 0-2.013282-1.926041-4.8856496-1.870872 0 0-4.8856495-4.397491-5.9305983-4.329053 0 0-1.2187521-3.614645.4880684-9.091781 0 0 6.4193761-16.668848 6.1732137-19.68431 0 0 3.554812-5.115393 2.5651966-9.690963l-5.4943163-13.964847s-1.4642051-8.300554-8.9334957-16.9628515c0 0-3.3646923-7.1287273-3.7321624-7.0051199 0 0 5.7539573-12.4068347 3.551265-25.8800454 0 0 6.2328034-11.677062 2.6262051-19.2185124 0 0 10.768718-2.8869669 15.4039487-14.0835661 0 0 4.8856496-4.2096364 2.2026923-6.8521818 0 0-2.933376-5.17265707-11.2482735-8.66648764 0 0-5.5035384-3.12999174-6.3633333-4.20963637 0 0-2.3197436-3.61464463-10.7644615 2.52592149 0 0-1.4642052 4.6949876 1.3471538 6.73625622 0 0 4.2762735.7227892 6.2377692-3.00428928 0 0 .3632137-.47906611-.3632136-.71859917 0 0 1.5812564.11662397 2.4367948-1.44557851 0 0 3.6718633 1.44557851 5.391453 5.77882236 1.7103675 4.3304504 1.4599487 4.6880041 2.4445983 5.4107933 0 0-7.5813761 2.0475538-9.296 7.7076571 0 0-8.1992649 1.3289545-9.5336496 6.3807975 0 0-6.4839316.9651157-5.1332307-5.051843 0 0 1.1017008-1.3289545 4.0755128-1.1718264 0 0 1.4861966.0914834.4100342-2.7256488-.0950599-.2653719.2589316-.5740413.4540171-1.0440289.1816068-.436467.0042564-.5188719-.8165214-1.1948719-.2724103-.2255661.2163675-.710219.4235128-1.2395661.1213077-.3191447-.4235128-1.4902728-.4235128-1.4902728s1.2698291-.9846694 1.2137863-1.4455785c-.1248547-1.0929132-3.092282-1.6627644-3.5931196-2.6432438-.1908291-.3910744.5008376-1.2626116.418547-1.6837149-.3348376-1.56918591-1.984906-4.77739252-4.1833419-6.01486359-3.0128291-1.70466529-11.2440171-2.24937604-14.8314615 4.89471489-.967624 1.9218512-.1901197 6.5972851.6462649 8.5875744.7838889 1.8834421 4.3216752 6.9604256 4.3216752 6.9604256z" opacity=".257" transform="translate(196 153)"/><path d="m140.555 277.647706-10.92 2.460412-.845-20.219611c-.130001-4.000729-.281666-7.021527-.455-9.062483l-.195.043936c-.520003 1.763838-1.126663 4.457167-1.82 8.080069l-.325 1.698226-4.485 21.290526-10.92 2.460412-3.77-17.415572-.65-3.103547c-.910005-3.824985-1.538332-6.370055-1.885-7.635286l-.195.043936c-.173334 2.205732-.324999 5.771535-.455 10.697517-.043334.313098-.065.794642-.065 1.444645l-.585 17.681808-10.985 2.475057 1.56-37.401487 18.59-4.188558 3.185 15.27238.78 4.114256c.346668-1.421449.671665-2.98966.975-4.70468l2.99-16.468684 18.98-4.27643zm5.785-38.353432 11.7-2.636155v37.05l-11.7 2.636155zm29.12 15.538902v14.95l-10.855 2.445767v-37.05l10.985-2.475057 9.815 12.738558c1.473341 1.878049 2.599996 3.487514 3.38 4.828444l.195-.043936v-20.54l10.79-2.431121v37.05l-11.05 2.489702-10.075-13.329977-2.925-3.760961-.195.043936zm43.745-31.956292c5.070025-1.142339 9.219151-1.600527 12.4475-1.374576s5.741658 1.457987 7.54 3.696144c1.798342 2.238158 2.6975 5.827195 2.6975 10.76722 0 5.286693-.953324 9.520615-2.86 12.701893-1.906676 3.181279-4.463317 5.577304-7.67 7.188147s-7.258309 2.967887-12.155 4.071172l-13 2.929062v-37.05zm8.71 26.247529c.520003-.637166.888332-2.063475 1.105-4.27897.216668-2.215496.325-4.233218.325-6.053227 0-2.296678-.162498-4.09088-.4875-5.38266s-.899163-2.25657-1.7225-2.894399c-1.300006-1.1371-3.531651-1.349275-6.695-.636534-.563336.126927-1.408328.360647-2.535.701167v21.58c.73667-.079313 1.884992-.294712 3.445-.646201 1.603341-.361253 3.022494-.756838 4.2575-1.186768 1.235006-.429929 2.004165-.830728 2.3075-1.202408zm28.795-34.697871 26.585-5.989931v8.06l-14.885 3.353775v7.345l12.285-2.767963v7.085l-12.285 2.767963v14.56l-11.7 2.636156zm30.42-6.854004 11.7-2.636155v28.47l15.145-3.412357v8.58l-26.845 6.048512zm30.745-6.927231 26.975-6.077802v7.8l-15.275 3.441647v6.76l12.87-2.899771v7.02l-12.87 2.899771v7.54l15.21-3.427002v7.93l-26.91 6.063157zm37.96 9.517141-8.71-16.107529 11.96-2.694736 5.98 13.212631 6.175-15.951304 11.635-2.62151-8.58 20.003181 9.165 16.980011-11.96 2.694737-6.435-14.280115-6.63 17.223822-12.025 2.709381z"/></g></svg>