<svg height="38" viewBox="0 0 307 38" width="307" xmlns="http://www.w3.org/2000/svg"><path d="m140.555 277.647706-10.92 2.460412-.845-20.219611c-.130001-4.000729-.281666-7.021527-.455-9.062483l-.195.043936c-.520003 1.763838-1.126663 4.457167-1.82 8.080069l-.325 1.698226-4.485 21.290526-10.92 2.460412-3.77-17.415572-.65-3.103547c-.910005-3.824985-1.538332-6.370055-1.885-7.635286l-.195.043936c-.173334 2.205732-.324999 5.771535-.455 10.697517-.043334.313098-.065.794642-.065 1.444645l-.585 17.681808-10.985 2.475057 1.56-37.401487 18.59-4.188558 3.185 15.27238.78 4.114256c.346668-1.421449.671665-2.98966.975-4.70468l2.99-16.468684 18.98-4.27643zm5.785-38.353432 11.7-2.636155v37.05l-11.7 2.636155zm29.12 15.538902v14.95l-10.855 2.445767v-37.05l10.985-2.475057 9.815 12.738558c1.473341 1.878049 2.599996 3.487514 3.38 4.828444l.195-.043936v-20.54l10.79-2.431121v37.05l-11.05 2.489702-10.075-13.329977-2.925-3.760961-.195.043936zm43.745-31.956292c5.070025-1.142339 9.219151-1.600527 12.4475-1.374576s5.741658 1.457987 7.54 3.696144c1.798342 2.238158 2.6975 5.827195 2.6975 10.76722 0 5.286693-.953324 9.520615-2.86 12.701893-1.906676 3.181279-4.463317 5.577304-7.67 7.188147s-7.258309 2.967887-12.155 4.071172l-13 2.929062v-37.05zm8.71 26.247529c.520003-.637166.888332-2.063475 1.105-4.27897.216668-2.215496.325-4.233218.325-6.053227 0-2.296678-.162498-4.09088-.4875-5.38266s-.899163-2.25657-1.7225-2.894399c-1.300006-1.1371-3.531651-1.349275-6.695-.636534-.563336.126927-1.408328.360647-2.535.701167v21.58c.73667-.079313 1.884992-.294712 3.445-.646201 1.603341-.361253 3.022494-.756838 4.2575-1.186768 1.235006-.429929 2.004165-.830728 2.3075-1.202408zm28.795-34.697871 26.585-5.989931v8.06l-14.885 3.353775v7.345l12.285-2.767963v7.085l-12.285 2.767963v14.56l-11.7 2.636156zm30.42-6.854004 11.7-2.636155v28.47l15.145-3.412357v8.58l-26.845 6.048512zm30.745-6.927231 26.975-6.077802v7.8l-15.275 3.441647v6.76l12.87-2.899771v7.02l-12.87 2.899771v7.54l15.21-3.427002v7.93l-26.91 6.063157zm37.96 9.517141-8.71-16.107529 11.96-2.694736 5.98 13.212631 6.175-15.951304 11.635-2.62151-8.58 20.003181 9.165 16.980011-11.96 2.694737-6.435-14.280115-6.63 17.223822-12.025 2.709381z" transform="matrix(.97629601 .21643961 -.21643961 .97629601 -27.004969 -263.829391)"/></svg>