<svg xmlns="http://www.w3.org/2000/svg" width="475" height="475" viewBox="0 0 475 475">
  <g fill="none" fill-rule="evenodd">
    <path fill="#FFD201" d="M107.683178,-4.35052929e-15 L367.316822,4.35052929e-15 C404.760609,-2.52778281e-15 418.338631,3.89867567 432.02752,11.2195736 C445.716408,18.5404714 456.459529,29.2835916 463.780426,42.9724805 C471.101324,56.6613693 475,70.2393913 475,107.683178 L475,367.316822 C475,404.760609 471.101324,418.338631 463.780426,432.02752 C456.459529,445.716408 445.716408,456.459529 432.02752,463.780426 C418.338631,471.101324 404.760609,475 367.316822,475 L107.683178,475 C70.2393913,475 56.6613693,471.101324 42.9724805,463.780426 C29.2835916,456.459529 18.5404714,445.716408 11.2195736,432.02752 C3.89867567,418.338631 1.68518854e-15,404.760609 -2.90035286e-15,367.316822 L2.90035286e-15,107.683178 C-1.68518854e-15,70.2393913 3.89867567,56.6613693 11.2195736,42.9724805 C18.5404714,29.2835916 29.2835916,18.5404714 42.9724805,11.2195736 C56.6613693,3.89867567 70.2393913,2.52778281e-15 107.683178,-4.35052929e-15 Z"/>
    <path fill="#000" fill-rule="nonzero" d="M140.555,277.647706 L129.635,280.108118 L128.79,259.888507 C128.659999,255.887778 128.508334,252.86698 128.335,250.826024 L128.14,250.86996 C127.619997,252.633798 127.013337,255.327127 126.32,258.950029 L125.995,260.648255 L121.51,281.938781 L110.59,284.399193 L106.82,266.983621 L106.17,263.880074 C105.259995,260.055089 104.631668,257.510019 104.285,256.244788 L104.09,256.288724 C103.916666,258.494456 103.765001,262.060259 103.635,266.986241 C103.591666,267.299339 103.57,267.780883 103.57,268.430886 L102.985,286.112694 L92,288.587751 L93.56,251.186264 L112.15,246.997706 L115.335,262.270086 L116.115,266.384342 C116.461668,264.962893 116.786665,263.394682 117.09,261.679662 L120.08,245.210978 L139.06,240.934548 L140.555,277.647706 Z M146.34,239.294274 L158.04,236.658119 L158.04,273.708119 L146.34,276.344274 L146.34,239.294274 Z M175.46,254.833176 L175.46,269.783176 L164.605,272.228943 L164.605,235.178943 L175.59,232.703886 L185.405,245.442444 C186.878341,247.320493 188.004996,248.929958 188.785,250.270888 L188.98,250.226952 L188.98,229.686952 L199.77,227.255831 L199.77,264.305831 L188.72,266.795533 L178.645,253.465556 L175.72,249.704595 L175.525,249.748531 L175.46,254.833176 Z M219.205,222.876884 C224.275025,221.734545 228.424151,221.276357 231.6525,221.502308 C234.880849,221.728259 237.394158,222.960295 239.1925,225.198452 C240.990842,227.43661 241.89,231.025647 241.89,235.965672 C241.89,241.252365 240.936676,245.486287 239.03,248.667565 C237.123324,251.848844 234.566683,254.244869 231.36,255.855712 C228.153317,257.466555 224.101691,258.823599 219.205,259.926884 L206.205,262.855946 L206.205,225.805946 L219.205,222.876884 Z M227.915,249.124413 C228.435003,248.487247 228.803332,247.060938 229.02,244.845443 C229.236668,242.629947 229.345,240.612225 229.345,238.792216 C229.345,236.495538 229.182502,234.701336 228.8575,233.409556 C228.532498,232.117776 227.958337,231.152986 227.135,230.515157 C225.834994,229.378057 223.603349,229.165882 220.44,229.878623 C219.876664,230.00555 219.031672,230.23927 217.905,230.57979 L217.905,252.15979 C218.64167,252.080477 219.789992,251.865078 221.35,251.513589 C222.953341,251.152336 224.372494,250.756751 225.6075,250.326821 C226.842506,249.896892 227.611665,249.496093 227.915,249.124413 Z M256.71,214.426542 L283.295,208.436611 L283.295,216.496611 L268.41,219.850386 L268.41,227.195386 L280.695,224.427423 L280.695,231.512423 L268.41,234.280386 L268.41,248.840386 L256.71,251.476542 L256.71,214.426542 Z M287.13,207.572538 L298.83,204.936383 L298.83,233.406383 L313.975,229.994026 L313.975,238.574026 L287.13,244.622538 L287.13,207.572538 Z M317.875,200.645307 L344.85,194.567505 L344.85,202.367505 L329.575,205.809152 L329.575,212.569152 L342.445,209.669381 L342.445,216.689381 L329.575,219.589152 L329.575,227.129152 L344.785,223.70215 L344.785,231.63215 L317.875,237.695307 L317.875,200.645307 Z M355.835,210.162448 L347.125,194.054919 L359.085,191.360183 L365.065,204.572814 L371.24,188.62151 L382.875,186 L374.295,206.003181 L383.46,222.983192 L371.5,225.677929 L365.065,211.397814 L358.435,228.621636 L346.41,231.331017 L355.835,210.162448 Z" transform="rotate(12.5 237.73 237.294)"/>
  </g>
</svg>
