<svg height="23" viewBox="0 0 21 23" width="21" xmlns="http://www.w3.org/2000/svg"><path d="m16.7752317 9.94733409v-7.94733409c0-1.1045695.8954305-2 2-2s2 .8954305 2 2v19c0 1.1045695-.8954305 2-2 2s-2-.8954305-2-2v-7.8240676c-.057421.0418922-.1176368.0811471-.1805757.1174975l-13.59439502 7.8514592c-.30410046.1756336-.64908545.2680999-1.00026098.2680999-1.1045695 0-2-.8954305-2-2v-15.7029184c0-.35117553.09246631-.69616052.2680999-1.00026099.55242889-.95650201 1.77565907-1.284068 2.73216108-.73163912l13.59439502 7.85145919c.0624407.0360627.1227059.07537079.1805757.11770441z" fill-rule="evenodd"/></svg>